<svg width="1598" height="334" viewBox="0 0 1598 334" fill="none" xmlns="http://www.w3.org/2000/svg">
<mask id="path-1-outside-1_100_5" maskUnits="userSpaceOnUse" x="0" y="0" width="1598" height="334" fill="black">
<rect fill="white" width="1598" height="334"/>
<path d="M119 332.2C93.2 332.2 71 328 52.4 319.6C33.8 310.9 17 297.85 2 280.45L45.65 236.8C55.25 248.8 66.2 258.1 78.5 264.7C91.1 271.3 105.95 274.6 123.05 274.6C138.35 274.6 150.35 271.75 159.05 266.05C168.05 260.05 172.55 251.95 172.55 241.75C172.55 232.75 169.85 225.4 164.45 219.7C159.05 214 151.85 209.2 142.85 205.3C134.15 201.1 124.4 197.35 113.6 194.05C103.1 190.45 92.45 186.4 81.65 181.9C71.15 177.1 61.4 171.25 52.4 164.35C43.7 157.45 36.65 148.75 31.25 138.25C25.85 127.45 23.15 113.95 23.15 97.75C23.15 78.25 27.8 61.6 37.1 47.8C46.7 34 59.75 23.5 76.25 16.3C92.75 9.09999 111.65 5.49999 132.95 5.49999C154.85 5.49999 174.8 9.4 192.8 17.2C210.8 25 225.5 35.5 236.9 48.7L193.7 92.35C184.1 82.15 174.35 74.65 164.45 69.85C154.85 65.05 143.9 62.65 131.6 62.65C118.4 62.65 108.05 65.2 100.55 70.3C93.05 75.4 89.3 82.6 89.3 91.9C89.3 100 92 106.75 97.4 112.15C102.8 117.25 109.85 121.75 118.55 125.65C127.55 129.25 137.3 132.85 147.8 136.45C158.6 140.05 169.25 144.25 179.75 149.05C190.55 153.55 200.3 159.4 209 166.6C218 173.8 225.2 183.1 230.6 194.5C236 205.6 238.7 219.4 238.7 235.9C238.7 265.9 228.05 289.45 206.75 306.55C185.45 323.65 156.2 332.2 119 332.2Z"/>
<path d="M363.448 332.2C341.248 332.2 321.148 327.25 303.148 317.35C285.148 307.45 270.898 293.95 260.398 276.85C250.198 259.45 245.098 239.95 245.098 218.35C245.098 196.45 250.198 176.95 260.398 159.85C270.898 142.75 285.148 129.25 303.148 119.35C321.448 109.45 341.848 104.5 364.348 104.5C381.148 104.5 396.749 107.5 411.148 113.5C425.549 119.5 438.148 128.35 448.948 140.05L407.548 181.45C402.148 175.45 395.848 170.95 388.648 167.95C381.448 164.95 373.348 163.45 364.348 163.45C353.848 163.45 344.548 165.85 336.448 170.65C328.648 175.15 322.348 181.45 317.548 189.55C313.048 197.65 310.798 207.1 310.798 217.9C310.798 228.7 313.048 238.3 317.548 246.7C322.348 254.8 328.798 261.25 336.898 266.05C344.999 270.55 354.148 272.8 364.348 272.8C373.648 272.8 381.898 271.3 389.098 268.3C396.598 265 403.048 260.2 408.448 253.9L449.849 295.3C438.749 307.3 425.998 316.45 411.598 322.75C397.198 329.05 381.148 332.2 363.448 332.2Z"/>
<path d="M549.488 331.75C529.688 331.75 511.838 326.8 495.938 316.9C480.038 307 467.588 293.5 458.588 276.4C449.588 259.3 445.088 239.95 445.088 218.35C445.088 196.75 449.588 177.4 458.588 160.3C467.588 143.2 480.038 129.7 495.938 119.8C511.838 109.6 529.688 104.5 549.488 104.5C564.488 104.5 577.988 107.5 589.988 113.5C602.288 119.5 612.038 127.9 619.238 138.7C626.738 149.2 630.938 161.2 631.838 174.7V262C630.938 275.5 626.738 287.5 619.238 298C612.038 308.5 602.288 316.75 589.988 322.75C577.988 328.75 564.488 331.75 549.488 331.75ZM562.088 272.8C577.688 272.8 590.138 267.7 599.438 257.5C609.038 247.3 613.838 234.25 613.838 218.35C613.838 207.55 611.738 198.1 607.538 190C603.338 181.6 597.338 175.15 589.538 170.65C581.738 165.85 572.738 163.45 562.538 163.45C552.338 163.45 543.338 165.85 535.538 170.65C527.738 175.15 521.588 181.6 517.088 190C512.588 198.1 510.338 207.55 510.338 218.35C510.338 228.85 512.588 238.3 517.088 246.7C521.588 254.8 527.738 261.25 535.538 266.05C543.338 270.55 552.188 272.8 562.088 272.8ZM611.138 327.25V268.75L621.038 215.65L611.138 162.55V109H674.588V327.25H611.138Z"/>
<path d="M706.897 327.25V1H771.247V327.25H706.897Z"/>
<path d="M909.344 332.2C886.244 332.2 865.544 327.4 847.244 317.8C829.244 307.9 814.994 294.4 804.494 277.3C794.294 259.9 789.194 240.25 789.194 218.35C789.194 196.45 794.294 176.95 804.494 159.85C814.694 142.75 828.494 129.25 845.894 119.35C863.594 109.45 883.394 104.5 905.294 104.5C926.294 104.5 944.894 109.15 961.094 118.45C977.594 127.75 990.494 140.65 999.794 157.15C1009.09 173.35 1013.74 192.1 1013.74 213.4C1013.74 217.3 1013.44 221.35 1012.84 225.55C1012.54 229.75 1011.94 234.55 1011.04 239.95L824.744 240.4V194.5L982.244 194.05L955.244 213.4C954.944 200.5 952.844 189.85 948.944 181.45C945.044 173.05 939.494 166.6 932.294 162.1C925.094 157.6 916.094 155.35 905.294 155.35C894.194 155.35 884.444 157.9 876.044 163C867.944 168.1 861.644 175.3 857.144 184.6C852.644 193.6 850.394 204.55 850.394 217.45C850.394 230.65 852.794 242.05 857.594 251.65C862.394 260.95 869.144 268.15 877.844 273.25C886.844 278.05 897.344 280.45 909.344 280.45C920.144 280.45 929.894 278.65 938.594 275.05C947.594 271.15 955.394 265.45 961.994 257.95L998.444 294.4C987.644 307 974.594 316.45 959.294 322.75C944.294 329.05 927.644 332.2 909.344 332.2Z"/>
<path d="M1087.06 210.7V158.05H1157.71C1166.71 158.05 1174.81 156.25 1182.01 152.65C1189.51 148.75 1195.36 143.35 1199.56 136.45C1204.06 129.25 1206.31 120.55 1206.31 110.35C1206.31 100.45 1204.06 91.9 1199.56 84.7C1195.36 77.5 1189.51 72.1 1182.01 68.5C1174.81 64.6 1166.71 62.65 1157.71 62.65H1087.06V9.99999H1166.26C1186.36 9.99999 1204.36 14.2 1220.26 22.6C1236.46 30.7 1249.21 42.25 1258.51 57.25C1268.11 71.95 1272.91 89.65 1272.91 110.35C1272.91 131.05 1268.11 148.9 1258.51 163.9C1249.21 178.9 1236.46 190.45 1220.26 198.55C1204.36 206.65 1186.36 210.7 1166.26 210.7H1087.06ZM1036.66 327.25V9.99999H1103.71V327.25H1036.66Z"/>
<path d="M1374.41 331.75C1354.61 331.75 1336.76 326.8 1320.86 316.9C1304.96 307 1292.51 293.5 1283.51 276.4C1274.51 259.3 1270.01 239.95 1270.01 218.35C1270.01 196.75 1274.51 177.4 1283.51 160.3C1292.51 143.2 1304.96 129.7 1320.86 119.8C1336.76 109.6 1354.61 104.5 1374.41 104.5C1389.41 104.5 1402.91 107.5 1414.91 113.5C1427.21 119.5 1436.96 127.9 1444.16 138.7C1451.66 149.2 1455.86 161.2 1456.76 174.7V262C1455.86 275.5 1451.66 287.5 1444.16 298C1436.96 308.5 1427.21 316.75 1414.91 322.75C1402.91 328.75 1389.41 331.75 1374.41 331.75ZM1387.01 272.8C1402.61 272.8 1415.06 267.7 1424.36 257.5C1433.96 247.3 1438.76 234.25 1438.76 218.35C1438.76 207.55 1436.66 198.1 1432.46 190C1428.26 181.6 1422.26 175.15 1414.46 170.65C1406.66 165.85 1397.66 163.45 1387.46 163.45C1377.26 163.45 1368.26 165.85 1360.46 170.65C1352.66 175.15 1346.51 181.6 1342.01 190C1337.51 198.1 1335.26 207.55 1335.26 218.35C1335.26 228.85 1337.51 238.3 1342.01 246.7C1346.51 254.8 1352.66 261.25 1360.46 266.05C1368.26 270.55 1377.11 272.8 1387.01 272.8ZM1436.06 327.25V268.75L1445.96 215.65L1436.06 162.55V109H1499.51V327.25H1436.06Z"/>
<path d="M1531.82 327.25V1H1596.17V327.25H1531.82Z"/>
</mask>
<path d="M119 332.2C93.2 332.2 71 328 52.4 319.6C33.8 310.9 17 297.85 2 280.45L45.65 236.8C55.25 248.8 66.2 258.1 78.5 264.7C91.1 271.3 105.95 274.6 123.05 274.6C138.35 274.6 150.35 271.75 159.05 266.05C168.05 260.05 172.55 251.95 172.55 241.75C172.55 232.75 169.85 225.4 164.45 219.7C159.05 214 151.85 209.2 142.85 205.3C134.15 201.1 124.4 197.35 113.6 194.05C103.1 190.45 92.45 186.4 81.65 181.9C71.15 177.1 61.4 171.25 52.4 164.35C43.7 157.45 36.65 148.75 31.25 138.25C25.85 127.45 23.15 113.95 23.15 97.75C23.15 78.25 27.8 61.6 37.1 47.8C46.7 34 59.75 23.5 76.25 16.3C92.75 9.09999 111.65 5.49999 132.95 5.49999C154.85 5.49999 174.8 9.4 192.8 17.2C210.8 25 225.5 35.5 236.9 48.7L193.7 92.35C184.1 82.15 174.35 74.65 164.45 69.85C154.85 65.05 143.9 62.65 131.6 62.65C118.4 62.65 108.05 65.2 100.55 70.3C93.05 75.4 89.3 82.6 89.3 91.9C89.3 100 92 106.75 97.4 112.15C102.8 117.25 109.85 121.75 118.55 125.65C127.55 129.25 137.3 132.85 147.8 136.45C158.6 140.05 169.25 144.25 179.75 149.05C190.55 153.55 200.3 159.4 209 166.6C218 173.8 225.2 183.1 230.6 194.5C236 205.6 238.7 219.4 238.7 235.9C238.7 265.9 228.05 289.45 206.75 306.55C185.45 323.65 156.2 332.2 119 332.2Z" fill="#1B3B6F"/>
<path d="M363.448 332.2C341.248 332.2 321.148 327.25 303.148 317.35C285.148 307.45 270.898 293.95 260.398 276.85C250.198 259.45 245.098 239.95 245.098 218.35C245.098 196.45 250.198 176.95 260.398 159.85C270.898 142.75 285.148 129.25 303.148 119.35C321.448 109.45 341.848 104.5 364.348 104.5C381.148 104.5 396.749 107.5 411.148 113.5C425.549 119.5 438.148 128.35 448.948 140.05L407.548 181.45C402.148 175.45 395.848 170.95 388.648 167.95C381.448 164.95 373.348 163.45 364.348 163.45C353.848 163.45 344.548 165.85 336.448 170.65C328.648 175.15 322.348 181.45 317.548 189.55C313.048 197.65 310.798 207.1 310.798 217.9C310.798 228.7 313.048 238.3 317.548 246.7C322.348 254.8 328.798 261.25 336.898 266.05C344.999 270.55 354.148 272.8 364.348 272.8C373.648 272.8 381.898 271.3 389.098 268.3C396.598 265 403.048 260.2 408.448 253.9L449.849 295.3C438.749 307.3 425.998 316.45 411.598 322.75C397.198 329.05 381.148 332.2 363.448 332.2Z" fill="#1B3B6F"/>
<path d="M549.488 331.75C529.688 331.75 511.838 326.8 495.938 316.9C480.038 307 467.588 293.5 458.588 276.4C449.588 259.3 445.088 239.95 445.088 218.35C445.088 196.75 449.588 177.4 458.588 160.3C467.588 143.2 480.038 129.7 495.938 119.8C511.838 109.6 529.688 104.5 549.488 104.5C564.488 104.5 577.988 107.5 589.988 113.5C602.288 119.5 612.038 127.9 619.238 138.7C626.738 149.2 630.938 161.2 631.838 174.7V262C630.938 275.5 626.738 287.5 619.238 298C612.038 308.5 602.288 316.75 589.988 322.75C577.988 328.75 564.488 331.75 549.488 331.75ZM562.088 272.8C577.688 272.8 590.138 267.7 599.438 257.5C609.038 247.3 613.838 234.25 613.838 218.35C613.838 207.55 611.738 198.1 607.538 190C603.338 181.6 597.338 175.15 589.538 170.65C581.738 165.85 572.738 163.45 562.538 163.45C552.338 163.45 543.338 165.85 535.538 170.65C527.738 175.15 521.588 181.6 517.088 190C512.588 198.1 510.338 207.55 510.338 218.35C510.338 228.85 512.588 238.3 517.088 246.7C521.588 254.8 527.738 261.25 535.538 266.05C543.338 270.55 552.188 272.8 562.088 272.8ZM611.138 327.25V268.75L621.038 215.65L611.138 162.55V109H674.588V327.25H611.138Z" fill="#1B3B6F"/>
<path d="M706.897 327.25V1H771.247V327.25H706.897Z" fill="#1B3B6F"/>
<path d="M909.344 332.2C886.244 332.2 865.544 327.4 847.244 317.8C829.244 307.9 814.994 294.4 804.494 277.3C794.294 259.9 789.194 240.25 789.194 218.35C789.194 196.45 794.294 176.95 804.494 159.85C814.694 142.75 828.494 129.25 845.894 119.35C863.594 109.45 883.394 104.5 905.294 104.5C926.294 104.5 944.894 109.15 961.094 118.45C977.594 127.75 990.494 140.65 999.794 157.15C1009.09 173.35 1013.74 192.1 1013.74 213.4C1013.74 217.3 1013.44 221.35 1012.84 225.55C1012.54 229.75 1011.94 234.55 1011.04 239.95L824.744 240.4V194.5L982.244 194.05L955.244 213.4C954.944 200.5 952.844 189.85 948.944 181.45C945.044 173.05 939.494 166.6 932.294 162.1C925.094 157.6 916.094 155.35 905.294 155.35C894.194 155.35 884.444 157.9 876.044 163C867.944 168.1 861.644 175.3 857.144 184.6C852.644 193.6 850.394 204.55 850.394 217.45C850.394 230.65 852.794 242.05 857.594 251.65C862.394 260.95 869.144 268.15 877.844 273.25C886.844 278.05 897.344 280.45 909.344 280.45C920.144 280.45 929.894 278.65 938.594 275.05C947.594 271.15 955.394 265.45 961.994 257.95L998.444 294.4C987.644 307 974.594 316.45 959.294 322.75C944.294 329.05 927.644 332.2 909.344 332.2Z" fill="#1B3B6F"/>
<path d="M1087.06 210.7V158.05H1157.71C1166.71 158.05 1174.81 156.25 1182.01 152.65C1189.51 148.75 1195.36 143.35 1199.56 136.45C1204.06 129.25 1206.31 120.55 1206.31 110.35C1206.31 100.45 1204.06 91.9 1199.56 84.7C1195.36 77.5 1189.51 72.1 1182.01 68.5C1174.81 64.6 1166.71 62.65 1157.71 62.65H1087.06V9.99999H1166.26C1186.36 9.99999 1204.36 14.2 1220.26 22.6C1236.46 30.7 1249.21 42.25 1258.51 57.25C1268.11 71.95 1272.91 89.65 1272.91 110.35C1272.91 131.05 1268.11 148.9 1258.51 163.9C1249.21 178.9 1236.46 190.45 1220.26 198.55C1204.36 206.65 1186.36 210.7 1166.26 210.7H1087.06ZM1036.66 327.25V9.99999H1103.71V327.25H1036.66Z" fill="#1B3B6F"/>
<path d="M1374.41 331.75C1354.61 331.75 1336.76 326.8 1320.86 316.9C1304.96 307 1292.51 293.5 1283.51 276.4C1274.51 259.3 1270.01 239.95 1270.01 218.35C1270.01 196.75 1274.51 177.4 1283.51 160.3C1292.51 143.2 1304.96 129.7 1320.86 119.8C1336.76 109.6 1354.61 104.5 1374.41 104.5C1389.41 104.5 1402.91 107.5 1414.91 113.5C1427.21 119.5 1436.96 127.9 1444.16 138.7C1451.66 149.2 1455.86 161.2 1456.76 174.7V262C1455.86 275.5 1451.66 287.5 1444.16 298C1436.96 308.5 1427.21 316.75 1414.91 322.75C1402.91 328.75 1389.41 331.75 1374.41 331.75ZM1387.01 272.8C1402.61 272.8 1415.06 267.7 1424.36 257.5C1433.96 247.3 1438.76 234.25 1438.76 218.35C1438.76 207.55 1436.66 198.1 1432.46 190C1428.26 181.6 1422.26 175.15 1414.46 170.65C1406.66 165.85 1397.66 163.45 1387.46 163.45C1377.26 163.45 1368.26 165.85 1360.46 170.65C1352.66 175.15 1346.51 181.6 1342.01 190C1337.51 198.1 1335.26 207.55 1335.26 218.35C1335.26 228.85 1337.51 238.3 1342.01 246.7C1346.51 254.8 1352.66 261.25 1360.46 266.05C1368.26 270.55 1377.11 272.8 1387.01 272.8ZM1436.06 327.25V268.75L1445.96 215.65L1436.06 162.55V109H1499.51V327.25H1436.06Z" fill="#1B3B6F"/>
<path d="M1531.82 327.25V1H1596.17V327.25H1531.82Z" fill="#1B3B6F"/>
<path d="M119 332.2C93.2 332.2 71 328 52.4 319.6C33.8 310.9 17 297.85 2 280.45L45.65 236.8C55.25 248.8 66.2 258.1 78.5 264.7C91.1 271.3 105.95 274.6 123.05 274.6C138.35 274.6 150.35 271.75 159.05 266.05C168.05 260.05 172.55 251.95 172.55 241.75C172.55 232.75 169.85 225.4 164.45 219.7C159.05 214 151.85 209.2 142.85 205.3C134.15 201.1 124.4 197.35 113.6 194.05C103.1 190.45 92.45 186.4 81.65 181.9C71.15 177.1 61.4 171.25 52.4 164.35C43.7 157.45 36.65 148.75 31.25 138.25C25.85 127.45 23.15 113.95 23.15 97.75C23.15 78.25 27.8 61.6 37.1 47.8C46.7 34 59.75 23.5 76.25 16.3C92.75 9.09999 111.65 5.49999 132.95 5.49999C154.85 5.49999 174.8 9.4 192.8 17.2C210.8 25 225.5 35.5 236.9 48.7L193.7 92.35C184.1 82.15 174.35 74.65 164.45 69.85C154.85 65.05 143.9 62.65 131.6 62.65C118.4 62.65 108.05 65.2 100.55 70.3C93.05 75.4 89.3 82.6 89.3 91.9C89.3 100 92 106.75 97.4 112.15C102.8 117.25 109.85 121.75 118.55 125.65C127.55 129.25 137.3 132.85 147.8 136.45C158.6 140.05 169.25 144.25 179.75 149.05C190.55 153.55 200.3 159.4 209 166.6C218 173.8 225.2 183.1 230.6 194.5C236 205.6 238.7 219.4 238.7 235.9C238.7 265.9 228.05 289.45 206.75 306.55C185.45 323.65 156.2 332.2 119 332.2Z" stroke="#1B3B6F" stroke-width="2" mask="url(#path-1-outside-1_100_5)"/>
<path d="M363.448 332.2C341.248 332.2 321.148 327.25 303.148 317.35C285.148 307.45 270.898 293.95 260.398 276.85C250.198 259.45 245.098 239.95 245.098 218.35C245.098 196.45 250.198 176.95 260.398 159.85C270.898 142.75 285.148 129.25 303.148 119.35C321.448 109.45 341.848 104.5 364.348 104.5C381.148 104.5 396.749 107.5 411.148 113.5C425.549 119.5 438.148 128.35 448.948 140.05L407.548 181.45C402.148 175.45 395.848 170.95 388.648 167.95C381.448 164.95 373.348 163.45 364.348 163.45C353.848 163.45 344.548 165.85 336.448 170.65C328.648 175.15 322.348 181.45 317.548 189.55C313.048 197.65 310.798 207.1 310.798 217.9C310.798 228.7 313.048 238.3 317.548 246.7C322.348 254.8 328.798 261.25 336.898 266.05C344.999 270.55 354.148 272.8 364.348 272.8C373.648 272.8 381.898 271.3 389.098 268.3C396.598 265 403.048 260.2 408.448 253.9L449.849 295.3C438.749 307.3 425.998 316.45 411.598 322.75C397.198 329.05 381.148 332.2 363.448 332.2Z" stroke="#1B3B6F" stroke-width="2" mask="url(#path-1-outside-1_100_5)"/>
<path d="M549.488 331.75C529.688 331.75 511.838 326.8 495.938 316.9C480.038 307 467.588 293.5 458.588 276.4C449.588 259.3 445.088 239.95 445.088 218.35C445.088 196.75 449.588 177.4 458.588 160.3C467.588 143.2 480.038 129.7 495.938 119.8C511.838 109.6 529.688 104.5 549.488 104.5C564.488 104.5 577.988 107.5 589.988 113.5C602.288 119.5 612.038 127.9 619.238 138.7C626.738 149.2 630.938 161.2 631.838 174.7V262C630.938 275.5 626.738 287.5 619.238 298C612.038 308.5 602.288 316.75 589.988 322.75C577.988 328.75 564.488 331.75 549.488 331.75ZM562.088 272.8C577.688 272.8 590.138 267.7 599.438 257.5C609.038 247.3 613.838 234.25 613.838 218.35C613.838 207.55 611.738 198.1 607.538 190C603.338 181.6 597.338 175.15 589.538 170.65C581.738 165.85 572.738 163.45 562.538 163.45C552.338 163.45 543.338 165.85 535.538 170.65C527.738 175.15 521.588 181.6 517.088 190C512.588 198.1 510.338 207.55 510.338 218.35C510.338 228.85 512.588 238.3 517.088 246.7C521.588 254.8 527.738 261.25 535.538 266.05C543.338 270.55 552.188 272.8 562.088 272.8ZM611.138 327.25V268.75L621.038 215.65L611.138 162.55V109H674.588V327.25H611.138Z" stroke="#1B3B6F" stroke-width="2" mask="url(#path-1-outside-1_100_5)"/>
<path d="M706.897 327.25V1H771.247V327.25H706.897Z" stroke="#1B3B6F" stroke-width="2" mask="url(#path-1-outside-1_100_5)"/>
<path d="M909.344 332.2C886.244 332.2 865.544 327.4 847.244 317.8C829.244 307.9 814.994 294.4 804.494 277.3C794.294 259.9 789.194 240.25 789.194 218.35C789.194 196.45 794.294 176.95 804.494 159.85C814.694 142.75 828.494 129.25 845.894 119.35C863.594 109.45 883.394 104.5 905.294 104.5C926.294 104.5 944.894 109.15 961.094 118.45C977.594 127.75 990.494 140.65 999.794 157.15C1009.09 173.35 1013.74 192.1 1013.74 213.4C1013.74 217.3 1013.44 221.35 1012.84 225.55C1012.54 229.75 1011.94 234.55 1011.04 239.95L824.744 240.4V194.5L982.244 194.05L955.244 213.4C954.944 200.5 952.844 189.85 948.944 181.45C945.044 173.05 939.494 166.6 932.294 162.1C925.094 157.6 916.094 155.35 905.294 155.35C894.194 155.35 884.444 157.9 876.044 163C867.944 168.1 861.644 175.3 857.144 184.6C852.644 193.6 850.394 204.55 850.394 217.45C850.394 230.65 852.794 242.05 857.594 251.65C862.394 260.95 869.144 268.15 877.844 273.25C886.844 278.05 897.344 280.45 909.344 280.45C920.144 280.45 929.894 278.65 938.594 275.05C947.594 271.15 955.394 265.45 961.994 257.95L998.444 294.4C987.644 307 974.594 316.45 959.294 322.75C944.294 329.05 927.644 332.2 909.344 332.2Z" stroke="#1B3B6F" stroke-width="2" mask="url(#path-1-outside-1_100_5)"/>
<path d="M1087.06 210.7V158.05H1157.71C1166.71 158.05 1174.81 156.25 1182.01 152.65C1189.51 148.75 1195.36 143.35 1199.56 136.45C1204.06 129.25 1206.31 120.55 1206.31 110.35C1206.31 100.45 1204.06 91.9 1199.56 84.7C1195.36 77.5 1189.51 72.1 1182.01 68.5C1174.81 64.6 1166.71 62.65 1157.71 62.65H1087.06V9.99999H1166.26C1186.36 9.99999 1204.36 14.2 1220.26 22.6C1236.46 30.7 1249.21 42.25 1258.51 57.25C1268.11 71.95 1272.91 89.65 1272.91 110.35C1272.91 131.05 1268.11 148.9 1258.51 163.9C1249.21 178.9 1236.46 190.45 1220.26 198.55C1204.36 206.65 1186.36 210.7 1166.26 210.7H1087.06ZM1036.66 327.25V9.99999H1103.71V327.25H1036.66Z" stroke="#1B3B6F" stroke-width="2" mask="url(#path-1-outside-1_100_5)"/>
<path d="M1374.41 331.75C1354.61 331.75 1336.76 326.8 1320.86 316.9C1304.96 307 1292.51 293.5 1283.51 276.4C1274.51 259.3 1270.01 239.95 1270.01 218.35C1270.01 196.75 1274.51 177.4 1283.51 160.3C1292.51 143.2 1304.96 129.7 1320.86 119.8C1336.76 109.6 1354.61 104.5 1374.41 104.5C1389.41 104.5 1402.91 107.5 1414.91 113.5C1427.21 119.5 1436.96 127.9 1444.16 138.7C1451.66 149.2 1455.86 161.2 1456.76 174.7V262C1455.86 275.5 1451.66 287.5 1444.16 298C1436.96 308.5 1427.21 316.75 1414.91 322.75C1402.91 328.75 1389.41 331.75 1374.41 331.75ZM1387.01 272.8C1402.61 272.8 1415.06 267.7 1424.36 257.5C1433.96 247.3 1438.76 234.25 1438.76 218.35C1438.76 207.55 1436.66 198.1 1432.46 190C1428.26 181.6 1422.26 175.15 1414.46 170.65C1406.66 165.85 1397.66 163.45 1387.46 163.45C1377.26 163.45 1368.26 165.85 1360.46 170.65C1352.66 175.15 1346.51 181.6 1342.01 190C1337.51 198.1 1335.26 207.55 1335.26 218.35C1335.26 228.85 1337.51 238.3 1342.01 246.7C1346.51 254.8 1352.66 261.25 1360.46 266.05C1368.26 270.55 1377.11 272.8 1387.01 272.8ZM1436.06 327.25V268.75L1445.96 215.65L1436.06 162.55V109H1499.51V327.25H1436.06Z" stroke="#1B3B6F" stroke-width="2" mask="url(#path-1-outside-1_100_5)"/>
<path d="M1531.82 327.25V1H1596.17V327.25H1531.82Z" stroke="#1B3B6F" stroke-width="2" mask="url(#path-1-outside-1_100_5)"/>
</svg>
