<?xml version="1.0" encoding="UTF-8"?>
<svg xmlns="http://www.w3.org/2000/svg" xmlns:xlink="http://www.w3.org/1999/xlink" width="3000" height="3000" viewBox="0 0 3000 3000">
<path fill-rule="nonzero" fill="rgb(94.921875%, 85.15625%, 44.700623%)" fill-opacity="1" d="M 1467.691406 1254.988281 C 1479.269531 1333.109375 1503.78125 1409.339844 1543.5 1481.339844 C 1580.851562 1408.378906 1606.410156 1329.390625 1618.921875 1248.359375 C 1572.089844 1234.410156 1521.210938 1234.53125 1467.691406 1254.988281 "/>
<path fill-rule="nonzero" fill="rgb(97.65625%, 38.401794%, 24.705505%)" fill-opacity="1" d="M 1860.511719 965.21875 C 1825.320312 934.171875 1783.378906 910.589844 1738.199219 897.929688 L 1662.628906 1112.761719 C 1670.851562 1116.121094 1679.011719 1119.78125 1686.988281 1123.621094 C 1737.960938 1148.160156 1775.191406 1193.878906 1789.351562 1248.628906 C 1802.519531 1299.628906 1810.800781 1350.808594 1815.808594 1402.289062 C 1863.839844 1321.921875 1898.460938 1236.179688 1918.890625 1147.710938 C 1934.339844 1080.898438 1911.929688 1010.550781 1860.511719 965.21875 Z M 1382.820312 985.828125 L 1351.890625 897.898438 C 1306.710938 910.558594 1264.738281 934.140625 1229.578125 965.191406 C 1178.160156 1010.550781 1155.75 1080.871094 1171.199219 1147.648438 C 1191.660156 1236.121094 1226.25 1321.859375 1274.28125 1402.230469 C 1274.609375 1398.660156 1275 1395.089844 1275.359375 1391.519531 C 1280.460938 1343.640625 1288.5 1296.058594 1300.738281 1248.570312 C 1314.898438 1193.820312 1352.128906 1148.101562 1403.070312 1123.558594 C 1411.078125 1119.71875 1419.210938 1116.058594 1427.429688 1112.699219 L 1382.820312 985.828125 "/>
<path fill-rule="nonzero" fill="rgb(83.201599%, 33.59375%, 22.093201%)" fill-opacity="1" d="M 1427.460938 1112.730469 C 1419.238281 1116.089844 1411.078125 1119.75 1403.101562 1123.589844 C 1352.128906 1148.128906 1314.898438 1193.851562 1300.769531 1248.601562 C 1288.53125 1296.058594 1280.488281 1343.671875 1275.390625 1391.550781 C 1263.808594 1351.109375 1256.101562 1309.769531 1253.039062 1267.921875 C 1249.261719 1215.78125 1252.980469 1162.441406 1270.769531 1113.300781 C 1288.589844 1064.160156 1321.410156 1019.429688 1366.679688 993.359375 C 1372.230469 990.148438 1377.628906 987.691406 1382.851562 985.828125 Z M 1662.628906 1112.730469 C 1670.851562 1116.089844 1679.011719 1119.75 1686.988281 1123.589844 C 1737.960938 1148.128906 1775.191406 1193.851562 1789.320312 1248.601562 C 1801.558594 1296.058594 1809.601562 1343.671875 1814.699219 1391.550781 C 1826.28125 1351.109375 1833.988281 1309.769531 1837.050781 1267.921875 C 1840.828125 1215.78125 1837.109375 1162.441406 1819.320312 1113.300781 C 1801.5 1064.160156 1768.679688 1019.429688 1723.410156 993.359375 C 1717.859375 990.148438 1712.460938 987.691406 1707.238281 985.828125 L 1662.628906 1112.730469 "/>
<path fill-rule="nonzero" fill="rgb(89.0625%, 91.40625%, 91.40625%)" fill-opacity="1" d="M 1769.609375 765.960938 C 1769.609375 934.859375 1720.558594 1077.269531 1671.449219 1169.851562 C 1656.179688 1198.679688 1640.910156 1222.648438 1627.078125 1241.101562 L 1462.648438 1241.101562 C 1445.640625 1224.089844 1428.421875 1199.910156 1412.101562 1169.851562 C 1361.96875 1077.570312 1320.511719 930.148438 1320.511719 765.960938 C 1320.511719 617.519531 1357.769531 484.980469 1406.488281 392.671875 C 1449.691406 310.828125 1501.859375 260.671875 1545.058594 258.988281 C 1581.421875 258.988281 1633.921875 310.199219 1679.011719 393.929688 C 1728.808594 486.511719 1769.609375 618.929688 1769.609375 765.960938 Z M 2700.269531 2507.609375 C 2698.738281 2505.691406 2697.179688 2503.800781 2695.558594 2501.96875 C 2643.058594 2441.011719 2557.648438 2413.109375 2477.28125 2420.339844 C 2417.371094 2425.738281 2346.601562 2445.269531 2304.601562 2402.128906 C 2273.039062 2369.699219 2276.28125 2318.339844 2277.058594 2273.070312 C 2277.839844 2227.769531 2268 2173.46875 2226.238281 2156.039062 C 2158.589844 2127.839844 2087.699219 2225.730469 2018.550781 2201.371094 C 2001.511719 2195.371094 1986.480469 2182.109375 1968.359375 2182.050781 C 1934.671875 2181.960938 1916.070312 2225.96875 1882.890625 2232.03125 C 1846.46875 2238.660156 1820.851562 2198.101562 1806.359375 2164.019531 C 1693.230469 1897.710938 1587 1602.929688 1618.859375 1315.351562 C 1601.160156 1381.890625 1567.648438 1467.300781 1555.859375 1485.898438 C 1545.898438 1501.621094 1534.558594 1495.289062 1528.738281 1489.710938 C 1522.921875 1484.101562 1520.101562 1476.121094 1517.550781 1468.46875 C 1501.648438 1421.039062 1487.640625 1373.011719 1475.488281 1324.441406 C 1504.140625 1525.800781 1465.410156 1737.601562 1369.289062 1919.339844 C 1329.449219 1994.699219 1279.738281 2064.929688 1220.851562 2127.089844 C 1151.191406 2058.871094 1067.101562 2003.910156 973.589844 1976.339844 C 909.421875 1957.378906 840.660156 1951.890625 774.78125 1962.539062 C 744.660156 1967.371094 715.171875 1975.621094 687 1987.441406 C 597.121094 2025.210938 522.238281 2101.378906 498.089844 2189.640625 C 393.359375 2227.5 308.128906 2315.640625 273.78125 2421.539062 C 239.429688 2527.5 256.738281 2648.878906 319.261719 2740.980469 C 319.261719 2740.980469 2722.46875 2740.980469 2709.148438 2738.730469 C 2760.058594 2672.941406 2752.261719 2572.46875 2700.269531 2507.609375 "/>
<path fill-rule="nonzero" fill="rgb(16.50238%, 16.50238%, 16.50238%)" fill-opacity="1" d="M 1632.390625 1233.839844 L 1644.539062 1264.710938 L 1445.550781 1264.710938 L 1457.128906 1235.339844 C 1441.921875 1218.78125 1426.648438 1196.671875 1412.070312 1169.878906 L 1671.449219 1169.878906 C 1658.101562 1195.019531 1644.75 1216.5 1632.390625 1233.839844 Z M 1684.558594 651.808594 C 1684.558594 573.058594 1620.511719 509.011719 1541.761719 509.011719 C 1463.039062 509.011719 1398.960938 573.058594 1398.960938 651.808594 C 1398.960938 730.53125 1463.011719 794.609375 1541.761719 794.609375 C 1620.480469 794.609375 1684.558594 730.558594 1684.558594 651.808594 "/>
<path fill-rule="evenodd" fill="rgb(59.179688%, 72.459412%, 94.139099%)" fill-opacity="1" d="M 1541.761719 530.941406 C 1608.46875 530.941406 1662.628906 585.101562 1662.628906 651.808594 C 1662.628906 718.519531 1608.46875 772.679688 1541.761719 772.679688 C 1475.050781 772.679688 1420.890625 718.519531 1420.890625 651.808594 C 1420.890625 585.101562 1475.050781 530.941406 1541.761719 530.941406 "/>
<path fill-rule="nonzero" fill="rgb(97.65625%, 38.401794%, 24.705505%)" fill-opacity="1" d="M 1529.730469 1150.078125 C 1529.730469 1008.210938 1536.601562 893.191406 1545.03125 893.191406 C 1553.460938 893.191406 1560.328125 1008.210938 1560.328125 1150.078125 C 1560.328125 1291.949219 1553.488281 1406.96875 1545.03125 1406.96875 C 1536.570312 1406.96875 1529.730469 1291.949219 1529.730469 1150.078125 Z M 1545.03125 258.988281 C 1501.828125 260.671875 1449.660156 310.828125 1406.460938 392.671875 C 1446.628906 403.921875 1494.179688 410.429688 1545.03125 410.429688 C 1593.988281 410.429688 1639.800781 404.398438 1678.980469 393.929688 C 1633.921875 310.199219 1581.421875 258.988281 1545.03125 258.988281 "/>
<path fill-rule="nonzero" fill="rgb(75.78125%, 82.421875%, 82.421875%)" fill-opacity="1" d="M 2709.210938 2738.761719 C 2722.5 2741.011719 319.320312 2741.011719 319.320312 2741.011719 C 256.769531 2648.910156 239.460938 2527.5 273.839844 2421.570312 C 308.191406 2315.640625 393.449219 2227.53125 498.148438 2189.671875 C 522.300781 2101.410156 597.148438 2025.238281 687.058594 1987.46875 C 715.230469 1975.621094 744.71875 1967.398438 774.839844 1962.570312 C 722.550781 1991.789062 678.148438 2035.289062 649.558594 2087.96875 C 598.46875 2182.109375 599.550781 2302.53125 652.289062 2395.738281 C 607.800781 2365.289062 540.121094 2403.898438 530.460938 2456.96875 C 520.800781 2510.039062 555.898438 2563.261719 602.011719 2591.308594 C 648.121094 2619.359375 703.230469 2627.519531 756.71875 2634.421875 C 917.941406 2655.238281 1090.171875 2668.320312 1235.101562 2594.761719 C 1364.761719 2529 1454.101562 2400.960938 1503.75 2264.28125 C 1553.398438 2127.601562 1567.921875 1981.109375 1582.078125 1836.390625 C 1593.929688 1982.730469 1606.078125 2130.660156 1652.011719 2270.101562 C 1697.941406 2409.539062 1781.699219 2541.78125 1907.671875 2617.171875 C 2042.070312 2697.628906 2206.980469 2704.921875 2363.519531 2699.761719 C 2446.46875 2697 2533.351562 2690.160156 2603.488281 2645.820312 C 2653.109375 2614.53125 2690.519531 2558.550781 2695.589844 2501.96875 C 2697.179688 2503.800781 2698.738281 2505.71875 2700.300781 2507.609375 C 2752.261719 2572.46875 2760.058594 2672.941406 2709.210938 2738.761719 Z M 1369.351562 1919.339844 C 1329.511719 1994.699219 1279.800781 2064.929688 1220.910156 2127.089844 C 1240.890625 2200.351562 1226.191406 2271.421875 1194.71875 2340.480469 C 1163.25 2409.570312 1116.359375 2470.320312 1069.921875 2530.378906 C 1174.078125 2442.871094 1271.101562 2342.21875 1328.398438 2218.828125 C 1371.449219 2126.070312 1389.390625 2018.488281 1369.351562 1919.339844 "/>
<path fill-rule="nonzero" fill="rgb(89.0625%, 91.40625%, 91.40625%)" fill-opacity="1" d="M 1516.109375 543.570312 C 1506.839844 546.269531 1498.710938 551.578125 1490.519531 556.53125 C 1473.570312 566.671875 1458.808594 580.441406 1448.28125 597.210938 C 1435.980469 617.851562 1432.140625 643.410156 1435.53125 667.019531 C 1435.949219 669.449219 1436.339844 671.941406 1437.269531 674.25 C 1437.238281 674.191406 1437.210938 674.160156 1437.238281 674.28125 C 1437.269531 674.398438 1437.359375 674.488281 1437.390625 674.609375 C 1437.421875 674.699219 1437.449219 674.820312 1437.511719 674.910156 C 1437.449219 674.761719 1437.449219 674.730469 1437.390625 674.609375 C 1437.988281 676.171875 1439.789062 677.128906 1441.410156 676.648438 C 1442.640625 676.320312 1443.511719 675.269531 1443.78125 674.070312 C 1443.78125 674.070312 1443.78125 674.070312 1443.78125 674.039062 C 1443.808594 673.859375 1443.839844 673.648438 1443.839844 673.46875 C 1443.839844 673.320312 1443.871094 673.230469 1443.898438 673.019531 C 1443.871094 670.679688 1443.75 671.28125 1443.539062 668.519531 C 1443.179688 663.871094 1443.328125 659.191406 1443.390625 654.511719 C 1443.871094 610.679688 1470.75 579.691406 1509.390625 557.398438 C 1514.429688 554.25 1514.699219 555.058594 1520.398438 552.210938 C 1524.71875 549.269531 1521.121094 541.980469 1516.109375 543.570312 "/>
</svg>
