<svg width="2112" height="567" viewBox="0 0 2112 567" fill="none" xmlns="http://www.w3.org/2000/svg">
<path d="M609.1 454.95C583.3 454.95 561.1 450.75 542.5 442.35C523.9 433.65 507.1 420.6 492.1 403.2L535.75 359.55C545.35 371.55 556.3 380.85 568.6 387.45C581.2 394.05 596.05 397.35 613.15 397.35C628.45 397.35 640.45 394.5 649.15 388.8C658.15 382.8 662.65 374.7 662.65 364.5C662.65 355.5 659.95 348.15 654.55 342.45C649.15 336.75 641.95 331.95 632.95 328.05C624.25 323.85 614.5 320.1 603.7 316.8C593.2 313.2 582.55 309.15 571.75 304.65C561.25 299.85 551.5 294 542.5 287.1C533.8 280.2 526.75 271.5 521.35 261C515.95 250.2 513.25 236.7 513.25 220.5C513.25 201 517.9 184.35 527.2 170.55C536.8 156.75 549.85 146.25 566.35 139.05C582.85 131.85 601.75 128.25 623.05 128.25C644.95 128.25 664.9 132.15 682.9 139.95C700.9 147.75 715.6 158.25 727 171.45L683.8 215.1C674.2 204.9 664.45 197.4 654.55 192.6C644.95 187.8 634 185.4 621.7 185.4C608.5 185.4 598.15 187.95 590.65 193.05C583.15 198.15 579.4 205.35 579.4 214.65C579.4 222.75 582.1 229.5 587.5 234.9C592.9 240 599.95 244.5 608.65 248.4C617.65 252 627.4 255.6 637.9 259.2C648.7 262.8 659.35 267 669.85 271.8C680.65 276.3 690.4 282.15 699.1 289.35C708.1 296.55 715.3 305.85 720.7 317.25C726.1 328.35 728.8 342.15 728.8 358.65C728.8 388.65 718.15 412.2 696.85 429.3C675.55 446.4 646.3 454.95 609.1 454.95ZM853.548 454.95C831.348 454.95 811.248 450 793.248 440.1C775.248 430.2 760.998 416.7 750.498 399.6C740.298 382.2 735.198 362.7 735.198 341.1C735.198 319.2 740.298 299.7 750.498 282.6C760.998 265.5 775.248 252 793.248 242.1C811.548 232.2 831.948 227.25 854.448 227.25C871.248 227.25 886.848 230.25 901.248 236.25C915.648 242.25 928.248 251.1 939.048 262.8L897.648 304.2C892.248 298.2 885.948 293.7 878.748 290.7C871.548 287.7 863.448 286.2 854.448 286.2C843.948 286.2 834.648 288.6 826.548 293.4C818.748 297.9 812.448 304.2 807.648 312.3C803.148 320.4 800.898 329.85 800.898 340.65C800.898 351.45 803.148 361.05 807.648 369.45C812.448 377.55 818.898 384 826.998 388.8C835.098 393.3 844.248 395.55 854.448 395.55C863.748 395.55 871.998 394.05 879.198 391.05C886.698 387.75 893.148 382.95 898.548 376.65L939.948 418.05C928.848 430.05 916.098 439.2 901.698 445.5C887.298 451.8 871.248 454.95 853.548 454.95ZM1039.59 454.5C1019.79 454.5 1001.94 449.55 986.038 439.65C970.138 429.75 957.688 416.25 948.688 399.15C939.688 382.05 935.188 362.7 935.188 341.1C935.188 319.5 939.688 300.15 948.688 283.05C957.688 265.95 970.138 252.45 986.038 242.55C1001.94 232.35 1019.79 227.25 1039.59 227.25C1054.59 227.25 1068.09 230.25 1080.09 236.25C1092.39 242.25 1102.14 250.65 1109.34 261.45C1116.84 271.95 1121.04 283.95 1121.94 297.45V384.75C1121.04 398.25 1116.84 410.25 1109.34 420.75C1102.14 431.25 1092.39 439.5 1080.09 445.5C1068.09 451.5 1054.59 454.5 1039.59 454.5ZM1052.19 395.55C1067.79 395.55 1080.24 390.45 1089.54 380.25C1099.14 370.05 1103.94 357 1103.94 341.1C1103.94 330.3 1101.84 320.85 1097.64 312.75C1093.44 304.35 1087.44 297.9 1079.64 293.4C1071.84 288.6 1062.84 286.2 1052.64 286.2C1042.44 286.2 1033.44 288.6 1025.64 293.4C1017.84 297.9 1011.69 304.35 1007.19 312.75C1002.69 320.85 1000.44 330.3 1000.44 341.1C1000.44 351.6 1002.69 361.05 1007.19 369.45C1011.69 377.55 1017.84 384 1025.64 388.8C1033.44 393.3 1042.29 395.55 1052.19 395.55ZM1101.24 450V391.5L1111.14 338.4L1101.24 285.3V231.75H1164.69V450H1101.24ZM1197 450V123.75H1261.35V450H1197ZM1399.44 454.95C1376.34 454.95 1355.64 450.15 1337.34 440.55C1319.34 430.65 1305.09 417.15 1294.59 400.05C1284.39 382.65 1279.29 363 1279.29 341.1C1279.29 319.2 1284.39 299.7 1294.59 282.6C1304.79 265.5 1318.59 252 1335.99 242.1C1353.69 232.2 1373.49 227.25 1395.39 227.25C1416.39 227.25 1434.99 231.9 1451.19 241.2C1467.69 250.5 1480.59 263.4 1489.89 279.9C1499.19 296.1 1503.84 314.85 1503.84 336.15C1503.84 340.05 1503.54 344.1 1502.94 348.3C1502.64 352.5 1502.04 357.3 1501.14 362.7L1314.84 363.15V317.25L1472.34 316.8L1445.34 336.15C1445.04 323.25 1442.94 312.6 1439.04 304.2C1435.14 295.8 1429.59 289.35 1422.39 284.85C1415.19 280.35 1406.19 278.1 1395.39 278.1C1384.29 278.1 1374.54 280.65 1366.14 285.75C1358.04 290.85 1351.74 298.05 1347.24 307.35C1342.74 316.35 1340.49 327.3 1340.49 340.2C1340.49 353.4 1342.89 364.8 1347.69 374.4C1352.49 383.7 1359.24 390.9 1367.94 396C1376.94 400.8 1387.44 403.2 1399.44 403.2C1410.24 403.2 1419.99 401.4 1428.69 397.8C1437.69 393.9 1445.49 388.2 1452.09 380.7L1488.54 417.15C1477.74 429.75 1464.69 439.2 1449.39 445.5C1434.39 451.8 1417.74 454.95 1399.44 454.95ZM1577.16 333.45V280.8H1647.81C1656.81 280.8 1664.91 279 1672.11 275.4C1679.61 271.5 1685.46 266.1 1689.66 259.2C1694.16 252 1696.41 243.3 1696.41 233.1C1696.41 223.2 1694.16 214.65 1689.66 207.45C1685.46 200.25 1679.61 194.85 1672.11 191.25C1664.91 187.35 1656.81 185.4 1647.81 185.4H1577.16V132.75H1656.36C1676.46 132.75 1694.46 136.95 1710.36 145.35C1726.56 153.45 1739.31 165 1748.61 180C1758.21 194.7 1763.01 212.4 1763.01 233.1C1763.01 253.8 1758.21 271.65 1748.61 286.65C1739.31 301.65 1726.56 313.2 1710.36 321.3C1694.46 329.4 1676.46 333.45 1656.36 333.45H1577.16ZM1526.76 450V132.75H1593.81V450H1526.76ZM1864.51 454.5C1844.71 454.5 1826.86 449.55 1810.96 439.65C1795.06 429.75 1782.61 416.25 1773.61 399.15C1764.61 382.05 1760.11 362.7 1760.11 341.1C1760.11 319.5 1764.61 300.15 1773.61 283.05C1782.61 265.95 1795.06 252.45 1810.96 242.55C1826.86 232.35 1844.71 227.25 1864.51 227.25C1879.51 227.25 1893.01 230.25 1905.01 236.25C1917.31 242.25 1927.06 250.65 1934.26 261.45C1941.76 271.95 1945.96 283.95 1946.86 297.45V384.75C1945.96 398.25 1941.76 410.25 1934.26 420.75C1927.06 431.25 1917.31 439.5 1905.01 445.5C1893.01 451.5 1879.51 454.5 1864.51 454.5ZM1877.11 395.55C1892.71 395.55 1905.16 390.45 1914.46 380.25C1924.06 370.05 1928.86 357 1928.86 341.1C1928.86 330.3 1926.76 320.85 1922.56 312.75C1918.36 304.35 1912.36 297.9 1904.56 293.4C1896.76 288.6 1887.76 286.2 1877.56 286.2C1867.36 286.2 1858.36 288.6 1850.56 293.4C1842.76 297.9 1836.61 304.35 1832.11 312.75C1827.61 320.85 1825.36 330.3 1825.36 341.1C1825.36 351.6 1827.61 361.05 1832.11 369.45C1836.61 377.55 1842.76 384 1850.56 388.8C1858.36 393.3 1867.21 395.55 1877.11 395.55ZM1926.16 450V391.5L1936.06 338.4L1926.16 285.3V231.75H1989.61V450H1926.16ZM2021.92 450V123.75H2086.27V450H2021.92Z" fill="#1B3B6F"/>
<path d="M8.80586 180.09L8.8058 180.091C5.31159 206.601 5.39777 240.413 5.50605 282.903L5.50699 283.274L5.51241 285.402L5.51336 285.773C5.62158 328.263 5.70768 362.075 9.33693 388.567L9.33699 388.568C13.0834 415.896 20.9158 438.246 38.6353 455.876C56.3549 473.505 78.7444 481.224 106.092 484.831L106.092 484.831C132.603 488.325 166.415 488.239 208.905 488.131L209.276 488.13L211.404 488.124L211.775 488.123C254.264 488.015 288.077 487.929 314.569 484.3L314.569 484.3C341.899 480.553 364.247 472.721 381.877 455.001C399.507 437.282 407.226 414.892 410.832 387.545L405.875 386.891L410.832 387.545C414.327 361.034 414.241 327.222 414.133 284.733L414.132 284.361L414.126 282.233L414.125 281.861C414.017 239.372 413.931 205.56 410.301 179.067C406.555 151.738 398.722 129.389 381.002 111.76C363.283 94.1301 340.895 86.4109 313.546 82.8049C287.036 79.3094 253.224 79.3957 210.735 79.5041L210.363 79.5051L208.235 79.5105L207.863 79.5114C165.373 79.6195 131.562 79.7054 105.069 83.336L105.748 88.2858L105.069 83.336C77.7402 87.0813 55.3903 94.9145 37.7608 112.634C20.1314 130.354 12.413 152.742 8.80586 180.09ZM354.334 138.564L354.334 138.564C363.837 148.018 369.669 161.063 372.84 184.201C376.086 207.884 376.206 239.157 376.318 283.393C376.431 327.629 376.47 358.902 373.346 382.601C370.293 405.755 364.527 418.829 355.073 428.333C345.618 437.836 332.574 443.668 309.436 446.838C285.752 450.084 254.48 450.204 210.243 450.316C166.008 450.429 134.735 450.468 111.035 447.343C87.8815 444.292 74.8077 438.526 65.3041 429.071C55.8005 419.615 49.9684 406.571 46.799 383.434C43.553 359.75 43.433 328.477 43.3203 284.242C43.2076 240.005 43.1683 208.732 46.2935 185.033C49.3451 161.879 55.1106 148.805 64.5657 139.302C74.0212 129.799 87.0655 123.967 110.203 120.797C133.887 117.551 165.159 117.431 209.395 117.318C253.631 117.206 284.904 117.166 308.604 120.291C331.758 123.344 344.832 129.109 354.334 138.564Z" fill="#1B3B6F" stroke="#1B3B6F" stroke-width="10"/>
<path d="M156.005 388.505C177.667 388.033 195.718 373.524 201.676 353.861C224.904 352.75 244.548 338.497 253.545 318.509C288.341 313.148 314.621 282.705 313.832 246.554C312.974 207.22 280.392 176.03 241.058 176.888C204.908 177.677 175.639 205.259 171.801 240.256C152.225 250.117 138.843 270.363 138.745 293.618C119.361 300.428 105.654 319.095 106.126 340.757C106.714 367.716 129.046 389.093 156.005 388.505ZM258.267 285.825C254.546 258.159 232.051 236.624 204.248 234.114C209.849 218.77 224.413 207.671 241.722 207.293C264.263 206.801 282.935 224.676 283.427 247.218C283.805 264.526 273.351 279.561 258.267 285.825ZM200.992 323.436C195.843 308.842 183.976 297.482 169.171 292.975C169.647 277.333 182.303 264.634 198.13 264.289C214.484 263.932 228.031 276.9 228.387 293.254C228.733 309.081 216.598 322.279 200.992 323.436ZM173.348 339.29C173.569 349.457 165.508 357.878 155.341 358.1C145.175 358.322 136.753 350.26 136.531 340.094C136.31 329.927 144.371 321.506 154.538 321.284C164.704 321.062 173.126 329.124 173.348 339.29Z" fill="#1B3B6F" stroke="#1B3B6F" stroke-width="8"/>
</svg>
