<svg width="2112" height="567" viewBox="0 0 2112 567" fill="none" xmlns="http://www.w3.org/2000/svg">
<path d="M609.096 454.95C583.296 454.95 561.096 450.75 542.496 442.35C523.896 433.65 507.096 420.6 492.096 403.2L535.746 359.55C545.346 371.55 556.296 380.85 568.596 387.45C581.196 394.05 596.046 397.35 613.146 397.35C628.446 397.35 640.446 394.5 649.146 388.8C658.146 382.8 662.646 374.7 662.646 364.5C662.646 355.5 659.946 348.15 654.546 342.45C649.146 336.75 641.946 331.95 632.946 328.05C624.246 323.85 614.496 320.1 603.696 316.8C593.196 313.2 582.546 309.15 571.746 304.65C561.246 299.85 551.496 294 542.496 287.1C533.796 280.2 526.746 271.5 521.346 261C515.946 250.2 513.246 236.7 513.246 220.5C513.246 201 517.896 184.35 527.196 170.55C536.796 156.75 549.846 146.25 566.346 139.05C582.846 131.85 601.746 128.25 623.046 128.25C644.946 128.25 664.896 132.15 682.896 139.95C700.896 147.75 715.596 158.25 726.996 171.45L683.796 215.1C674.196 204.9 664.446 197.4 654.546 192.6C644.946 187.8 633.996 185.4 621.696 185.4C608.496 185.4 598.146 187.95 590.646 193.05C583.146 198.15 579.396 205.35 579.396 214.65C579.396 222.75 582.096 229.5 587.496 234.9C592.896 240 599.946 244.5 608.646 248.4C617.646 252 627.396 255.6 637.896 259.2C648.696 262.8 659.346 267 669.846 271.8C680.646 276.3 690.396 282.15 699.096 289.35C708.096 296.55 715.296 305.85 720.696 317.25C726.096 328.35 728.796 342.15 728.796 358.65C728.796 388.65 718.146 412.2 696.846 429.3C675.546 446.4 646.296 454.95 609.096 454.95ZM853.545 454.95C831.345 454.95 811.245 450 793.245 440.1C775.245 430.2 760.995 416.7 750.495 399.6C740.295 382.2 735.195 362.7 735.195 341.1C735.195 319.2 740.295 299.7 750.495 282.6C760.995 265.5 775.245 252 793.245 242.1C811.545 232.2 831.945 227.25 854.445 227.25C871.245 227.25 886.845 230.25 901.245 236.25C915.645 242.25 928.245 251.1 939.045 262.8L897.645 304.2C892.245 298.2 885.945 293.7 878.745 290.7C871.545 287.7 863.445 286.2 854.445 286.2C843.945 286.2 834.645 288.6 826.545 293.4C818.745 297.9 812.445 304.2 807.645 312.3C803.145 320.4 800.895 329.85 800.895 340.65C800.895 351.45 803.145 361.05 807.645 369.45C812.445 377.55 818.895 384 826.995 388.8C835.095 393.3 844.245 395.55 854.445 395.55C863.745 395.55 871.995 394.05 879.195 391.05C886.695 387.75 893.145 382.95 898.545 376.65L939.945 418.05C928.845 430.05 916.095 439.2 901.695 445.5C887.295 451.8 871.245 454.95 853.545 454.95ZM1039.58 454.5C1019.78 454.5 1001.93 449.55 986.034 439.65C970.134 429.75 957.684 416.25 948.684 399.15C939.684 382.05 935.184 362.7 935.184 341.1C935.184 319.5 939.684 300.15 948.684 283.05C957.684 265.95 970.134 252.45 986.034 242.55C1001.93 232.35 1019.78 227.25 1039.58 227.25C1054.58 227.25 1068.08 230.25 1080.08 236.25C1092.38 242.25 1102.13 250.65 1109.33 261.45C1116.83 271.95 1121.03 283.95 1121.93 297.45V384.75C1121.03 398.25 1116.83 410.25 1109.33 420.75C1102.13 431.25 1092.38 439.5 1080.08 445.5C1068.08 451.5 1054.58 454.5 1039.58 454.5ZM1052.18 395.55C1067.78 395.55 1080.23 390.45 1089.53 380.25C1099.13 370.05 1103.93 357 1103.93 341.1C1103.93 330.3 1101.83 320.85 1097.63 312.75C1093.43 304.35 1087.43 297.9 1079.63 293.4C1071.83 288.6 1062.83 286.2 1052.63 286.2C1042.43 286.2 1033.43 288.6 1025.63 293.4C1017.83 297.9 1011.68 304.35 1007.18 312.75C1002.68 320.85 1000.43 330.3 1000.43 341.1C1000.43 351.6 1002.68 361.05 1007.18 369.45C1011.68 377.55 1017.83 384 1025.63 388.8C1033.43 393.3 1042.28 395.55 1052.18 395.55ZM1101.23 450V391.5L1111.13 338.4L1101.23 285.3V231.75H1164.68V450H1101.23ZM1196.99 450V123.75H1261.34V450H1196.99ZM1399.44 454.95C1376.34 454.95 1355.64 450.15 1337.34 440.55C1319.34 430.65 1305.09 417.15 1294.59 400.05C1284.39 382.65 1279.29 363 1279.29 341.1C1279.29 319.2 1284.39 299.7 1294.59 282.6C1304.79 265.5 1318.59 252 1335.99 242.1C1353.69 232.2 1373.49 227.25 1395.39 227.25C1416.39 227.25 1434.99 231.9 1451.19 241.2C1467.69 250.5 1480.59 263.4 1489.89 279.9C1499.19 296.1 1503.84 314.85 1503.84 336.15C1503.84 340.05 1503.54 344.1 1502.94 348.3C1502.64 352.5 1502.04 357.3 1501.14 362.7L1314.84 363.15V317.25L1472.34 316.8L1445.34 336.15C1445.04 323.25 1442.94 312.6 1439.04 304.2C1435.14 295.8 1429.59 289.35 1422.39 284.85C1415.19 280.35 1406.19 278.1 1395.39 278.1C1384.29 278.1 1374.54 280.65 1366.14 285.75C1358.04 290.85 1351.74 298.05 1347.24 307.35C1342.74 316.35 1340.49 327.3 1340.49 340.2C1340.49 353.4 1342.89 364.8 1347.69 374.4C1352.49 383.7 1359.24 390.9 1367.94 396C1376.94 400.8 1387.44 403.2 1399.44 403.2C1410.24 403.2 1419.99 401.4 1428.69 397.8C1437.69 393.9 1445.49 388.2 1452.09 380.7L1488.54 417.15C1477.74 429.75 1464.69 439.2 1449.39 445.5C1434.39 451.8 1417.74 454.95 1399.44 454.95ZM1577.16 333.45V280.8H1647.81C1656.81 280.8 1664.91 279 1672.11 275.4C1679.61 271.5 1685.46 266.1 1689.66 259.2C1694.16 252 1696.41 243.3 1696.41 233.1C1696.41 223.2 1694.16 214.65 1689.66 207.45C1685.46 200.25 1679.61 194.85 1672.11 191.25C1664.91 187.35 1656.81 185.4 1647.81 185.4H1577.16V132.75H1656.36C1676.46 132.75 1694.46 136.95 1710.36 145.35C1726.56 153.45 1739.31 165 1748.61 180C1758.21 194.7 1763.01 212.4 1763.01 233.1C1763.01 253.8 1758.21 271.65 1748.61 286.65C1739.31 301.65 1726.56 313.2 1710.36 321.3C1694.46 329.4 1676.46 333.45 1656.36 333.45H1577.16ZM1526.76 450V132.75H1593.81V450H1526.76ZM1864.51 454.5C1844.71 454.5 1826.86 449.55 1810.96 439.65C1795.06 429.75 1782.61 416.25 1773.61 399.15C1764.61 382.05 1760.11 362.7 1760.11 341.1C1760.11 319.5 1764.61 300.15 1773.61 283.05C1782.61 265.95 1795.06 252.45 1810.96 242.55C1826.86 232.35 1844.71 227.25 1864.51 227.25C1879.51 227.25 1893.01 230.25 1905.01 236.25C1917.31 242.25 1927.06 250.65 1934.26 261.45C1941.76 271.95 1945.96 283.95 1946.86 297.45V384.75C1945.96 398.25 1941.76 410.25 1934.26 420.75C1927.06 431.25 1917.31 439.5 1905.01 445.5C1893.01 451.5 1879.51 454.5 1864.51 454.5ZM1877.11 395.55C1892.71 395.55 1905.16 390.45 1914.46 380.25C1924.06 370.05 1928.86 357 1928.86 341.1C1928.86 330.3 1926.76 320.85 1922.56 312.75C1918.36 304.35 1912.36 297.9 1904.56 293.4C1896.76 288.6 1887.76 286.2 1877.56 286.2C1867.36 286.2 1858.36 288.6 1850.56 293.4C1842.76 297.9 1836.61 304.35 1832.11 312.75C1827.61 320.85 1825.36 330.3 1825.36 341.1C1825.36 351.6 1827.61 361.05 1832.11 369.45C1836.61 377.55 1842.76 384 1850.56 388.8C1858.36 393.3 1867.21 395.55 1877.11 395.55ZM1926.16 450V391.5L1936.06 338.4L1926.16 285.3V231.75H1989.61V450H1926.16ZM2021.92 450V123.75H2086.27V450H2021.92Z" fill="white"/>
<path d="M8.80586 182.09L8.8058 182.091C5.31159 208.601 5.39777 242.413 5.50605 284.903L5.50699 285.274L5.51241 287.402L5.51336 287.773C5.62158 330.263 5.70768 364.075 9.33693 390.567L9.33699 390.568C13.0834 417.896 20.9158 440.246 38.6353 457.876C56.3549 475.505 78.7444 483.224 106.092 486.831L106.092 486.831C132.603 490.325 166.415 490.239 208.905 490.131L209.276 490.13L211.404 490.124L211.775 490.123C254.264 490.015 288.077 489.929 314.569 486.3L314.569 486.3C341.899 482.553 364.247 474.721 381.877 457.001C399.507 439.282 407.226 416.892 410.832 389.545L405.875 388.891L410.832 389.545C414.327 363.034 414.241 329.222 414.133 286.733L414.132 286.361L414.126 284.233L414.125 283.861C414.017 241.372 413.931 207.56 410.301 181.067C406.555 153.738 398.722 131.389 381.002 113.76C363.283 96.1301 340.895 88.4109 313.546 84.8049C287.036 81.3094 253.224 81.3957 210.735 81.5041L210.363 81.5051L208.235 81.5105L207.863 81.5114C165.373 81.6195 131.562 81.7054 105.069 85.336L105.748 90.2858L105.069 85.336C77.7402 89.0813 55.3903 96.9145 37.7608 114.634C20.1314 132.354 12.413 154.742 8.80586 182.09ZM354.334 140.564L354.334 140.564C363.837 150.018 369.669 163.063 372.84 186.201C376.086 209.884 376.206 241.157 376.318 285.393C376.431 329.629 376.47 360.902 373.346 384.601C370.293 407.755 364.527 420.829 355.073 430.333C345.618 439.836 332.574 445.668 309.436 448.838C285.752 452.084 254.48 452.204 210.243 452.316C166.008 452.429 134.735 452.468 111.035 449.343C87.8815 446.292 74.8077 440.526 65.3041 431.071C55.8005 421.615 49.9684 408.571 46.799 385.434C43.553 361.75 43.433 330.477 43.3203 286.242C43.2076 242.005 43.1683 210.732 46.2935 187.033C49.3451 163.879 55.1106 150.805 64.5657 141.302C74.0212 131.799 87.0655 125.967 110.203 122.797C133.887 119.551 165.159 119.431 209.395 119.318C253.631 119.206 284.904 119.166 308.604 122.291C331.758 125.344 344.832 131.109 354.334 140.564Z" fill="white" stroke="white" stroke-width="10"/>
<path d="M156.005 390.505C177.667 390.033 195.718 375.524 201.676 355.861C224.904 354.75 244.548 340.497 253.545 320.509C288.341 315.148 314.621 284.705 313.832 248.554C312.974 209.22 280.392 178.03 241.058 178.888C204.908 179.677 175.639 207.259 171.801 242.256C152.225 252.117 138.843 272.363 138.745 295.618C119.361 302.428 105.654 321.095 106.126 342.757C106.714 369.716 129.046 391.093 156.005 390.505ZM258.267 287.825C254.546 260.159 232.051 238.624 204.248 236.114C209.849 220.77 224.413 209.671 241.722 209.293C264.263 208.801 282.935 226.676 283.427 249.218C283.805 266.526 273.351 281.561 258.267 287.825ZM200.992 325.436C195.843 310.842 183.976 299.482 169.171 294.975C169.647 279.333 182.303 266.634 198.13 266.289C214.484 265.932 228.031 278.9 228.387 295.254C228.733 311.081 216.598 324.279 200.992 325.436ZM173.348 341.29C173.569 351.457 165.508 359.878 155.341 360.1C145.175 360.322 136.753 352.26 136.531 342.094C136.31 331.927 144.371 323.506 154.538 323.284C164.704 323.062 173.126 331.124 173.348 341.29Z" fill="white" stroke="white" stroke-width="8"/>
</svg>
